<?xml version="1.0" encoding="utf-8"?>
<!-- Generator: Adobe Illustrator 18.1.0, SVG Export Plug-In . SVG Version: 6.00 Build 0)  -->
<svg version="1.1" id="Слой_1" xmlns="http://www.w3.org/2000/svg" xmlns:xlink="http://www.w3.org/1999/xlink" x="0px" y="0px"
	 viewBox="0.1 109.8 595.2 622.2" enable-background="new 0.1 109.8 595.2 622.2" xml:space="preserve">
<path display="none" d="M243.5,315.4l16.2-16.2l100.1,110.9l-16.2,16.2L243.5,315.4"/>
<path display="none" d="M346.3,393.9l16.2,16.2L262.5,521.1l-18.9-16.2L346.3,393.9"/>
<path fill="none" stroke="#000000" stroke-width="54" stroke-miterlimit="10" d="M297.6,136.8c148.8,0,270.6,127.2,270.6,284.1
	S449.2,705.1,297.6,705.1S27.1,577.9,27.1,420.9S148.8,136.8,297.6,136.8z"/>
<rect x="202.7" y="358.8" transform="matrix(0.6942 -0.7198 0.7198 0.6942 -189.2622 326.1852)" width="173.2" height="54.1"/>
<rect x="201.7" y="445.2" transform="matrix(-0.7194 -0.6946 0.6946 -0.7194 167.6697 1012.3139)" width="173.2" height="54.1"/>
</svg>
