<?xml version="1.0" encoding="utf-8"?>
<!-- Generator: Adobe Illustrator 18.1.0, SVG Export Plug-In . SVG Version: 6.00 Build 0)  -->
<svg version="1.1" xmlns="http://www.w3.org/2000/svg" xmlns:xlink="http://www.w3.org/1999/xlink" x="0px" y="0px"
	 viewBox="0 0 21 22" enable-background="new 0 0 21 22" xml:space="preserve">
<g id="Слой_1__x28_копия_x29_">
	<path fill-rule="evenodd" clip-rule="evenodd" d="M14.3,7.5l-3.7,4.1L9.9,11l3.7-4.1L14.3,7.5"/>
	<path fill-rule="evenodd" clip-rule="evenodd" d="M10.5,10.4l3.7,4.1l-0.6,0.6L9.9,11L10.5,10.4"/>
	<path fill-rule="evenodd" clip-rule="evenodd" d="M6.7,7.5l0.6-0.6l3.7,4.1l-0.6,0.6L6.7,7.5"/>
	<path fill-rule="evenodd" clip-rule="evenodd" d="M10.5,10.4l0.6,0.6l-3.7,4.1l-0.6-0.6L10.5,10.4"/>
	<path fill-rule="evenodd" clip-rule="evenodd" fill="none" stroke="#000000" stroke-miterlimit="10" d="M10.5,0.5
		c5.5,0,10,4.7,10,10.5c0,5.8-4.5,10.5-10,10.5s-10-4.7-10-10.5C0.5,5.2,5,0.5,10.5,0.5z"/>
</g>
<g id="Слой_1" display="none">
	<path display="inline" fill-rule="evenodd" clip-rule="evenodd" d="M8.5,7.1l0.6-0.6l3.7,4.1l-0.6,0.6L8.5,7.1"/>
	<path display="inline" fill-rule="evenodd" clip-rule="evenodd" d="M12.2,10l0.6,0.6l-3.7,4.1l-0.6-0.6L12.2,10"/>
	<path display="inline" fill-rule="evenodd" clip-rule="evenodd" fill="none" stroke="#000000" stroke-miterlimit="10" d="M10.5,0.5
		c5.5,0,10,4.7,10,10.5c0,5.8-4.5,10.5-10,10.5s-10-4.7-10-10.5C0.5,5.2,5,0.5,10.5,0.5z"/>
</g>
</svg>
