<?xml version="1.0" encoding="utf-8"?>
<!-- Generator: Adobe Illustrator 18.1.0, SVG Export Plug-In . SVG Version: 6.00 Build 0)  -->
<svg version="1.1" id="Livello_1" xmlns="http://www.w3.org/2000/svg" xmlns:xlink="http://www.w3.org/1999/xlink" x="0px" y="0px"
	 viewBox="-226 350.2 141.7 141.2" enable-background="new -226 350.2 141.7 141.2" xml:space="preserve">
<g id="Livello_113">
	<path d="M-131.8,383v22.9h-45.5V383c0-12.6,10.2-22.7,22.7-22.7C-142,360.3-131.8,370.4-131.8,383 M-163.6,434.3
		c0-5,4.1-9.1,9.1-9.1c5,0,9.1,4.1,9.1,9.1c0,3.9-2.4,7.2-5.9,8.5v29.3h-6.5v-29.3C-161.2,441.5-163.6,438.2-163.6,434.3
		 M-105.1,486.9L-105.1,486.9l0-76.4h0c0,0,0,0,0,0c0-2.5-2-4.5-4.5-4.5c0,0,0,0,0,0v0h-12.1V383c0-18.1-14.7-32.9-32.9-32.9
		c-18.1,0-32.9,14.7-32.9,32.9v22.9h-12.1v0c0,0,0,0,0,0c-2.5,0-4.5,2-4.5,4.5c0,0,0,0,0,0h0v76.4h0c0,0,0,0,0,0
		c0,2.5,2,4.5,4.5,4.5c0,0,0,0,0,0v0h89.9v0c0,0,0,0,0,0C-107.1,491.4-105,489.4-105.1,486.9C-105.1,486.9-105.1,486.9-105.1,486.9"
		/>
</g>
<g id="Livello_1_1_">
</g>
</svg>
