<?xml version="1.0" encoding="utf-8"?>
<!-- Generator: Adobe Illustrator 18.1.0, SVG Export Plug-In . SVG Version: 6.00 Build 0)  -->
<svg version="1.1" id="Livello_1" xmlns="http://www.w3.org/2000/svg" xmlns:xlink="http://www.w3.org/1999/xlink" x="0px" y="0px"
	 viewBox="-226 350.2 101.8 139.3" enable-background="new -226 350.2 101.8 139.3" xml:space="preserve">
<g id="Livello_110">
	<path d="M-150.6,400.8c0,14-11.4,25.3-25.4,25.3c-14.1,0-25.4-11.3-25.4-25.3c0-14,11.4-25.3,25.4-25.3
		C-162,375.5-150.6,386.8-150.6,400.8 M-124.2,400.8c0-28-22.8-50.6-50.9-50.6c-28.1,0-50.9,22.7-50.9,50.6
		c0,12.3,4.4,23.6,11.7,32.3l39.2,56.3l39.8-57.1c1.4-1.8,2.7-3.7,3.9-5.6l0.4-0.6h-0.1C-126.7,418.7-124.2,410-124.2,400.8"/>
</g>
<g id="Livello_1_1_">
</g>
</svg>
