<?xml version="1.0" encoding="utf-8"?>
<!-- Generator: Adobe Illustrator 18.1.0, SVG Export Plug-In . SVG Version: 6.00 Build 0)  -->
<svg version="1.1" id="Слой_1" xmlns="http://www.w3.org/2000/svg" xmlns:xlink="http://www.w3.org/1999/xlink" x="0px" y="0px"
	 viewBox="0 0 108.9 100.7" enable-background="new 0 0 108.9 100.7" xml:space="preserve">
<path fill="none" stroke="#d9c39c" stroke-width="2" stroke-miterlimit="10" d="M21.3,56.8c0.4-11.9,2.4-21,5.9-27.2
	c3.6-6.2,9.1-10.9,16.6-14l-9-14.4C22.4,6.9,13.3,15.1,7.6,26.1C3.2,34.3,1,47.5,1,65.9v33.8h39.6V56.8H21.3z M84.9,56.8
	c0.4-11.9,2.4-21,5.9-27.2c3.6-6.2,9.1-10.9,16.6-14l-9-14.4C86,6.9,76.9,15.1,71.1,26.1c-4.4,8.2-6.6,21.5-6.6,39.8v33.8h39.6V56.8
	H84.9z"/>
</svg>
