<svg xmlns="http://www.w3.org/2000/svg" viewBox="0 123.1 595.3 595.3"><path fill="#E02F2F" d="M297.7 123.1C133.3 123.1.1 256.4.1 420.7c0 164.4 133.2 297.6 297.6 297.6S595.3 585 595.3 420.7c.1-164.3-133.2-297.6-297.6-297.6zm-84.3 426.8h-66.2V350.8h66.2v199.1zm-33.1-226.3h-.4c-22.2 0-36.6-15.3-36.6-34.4 0-19.5 14.8-34.4 37.4-34.4 22.6 0 36.6 14.9 37 34.4 0 19.1-14.4 34.4-37.4 34.4zM452 549.9h-66.2V443.4c0-26.8-9.6-45-33.5-45-18.3 0-29.2 12.3-33.9 24.2-1.7 4.2-2.2 10.2-2.2 16.1v111.2H250s.9-180.4 0-199.1h66.2V379c8.8-13.6 24.5-32.9 59.6-32.9 43.5 0 76.2 28.5 76.2 89.6v114.2z"/></svg>