<?xml version="1.0" encoding="utf-8"?>
<!-- Generator: Adobe Illustrator 18.1.0, SVG Export Plug-In . SVG Version: 6.00 Build 0)  -->
<svg version="1.1" id="Слой_1" xmlns="http://www.w3.org/2000/svg" xmlns:xlink="http://www.w3.org/1999/xlink" x="0px" y="0px"
	 viewBox="0 123.1 595.3 595.3" enable-background="new 0 123.1 595.3 595.3" xml:space="preserve">
<path fill="#E02F2F" d="M297.7,123.1C133.3,123.1,0.1,256.4,0.1,420.7c0,164.4,133.2,297.6,297.6,297.6s297.6-133.3,297.6-297.6
	C595.4,256.4,462.1,123.1,297.7,123.1z M213.4,549.9h-66.2V350.8h66.2V549.9z M180.3,323.6L180.3,323.6l-0.4,0
	c-22.2,0-36.6-15.3-36.6-34.4c0-19.5,14.8-34.4,37.4-34.4c22.6,0,36.6,14.9,37,34.4C217.7,308.3,203.3,323.6,180.3,323.6z
	 M452,549.9l-66.2,0V443.4c0-26.8-9.6-45-33.5-45c-18.3,0-29.2,12.3-33.9,24.2c-1.7,4.2-2.2,10.2-2.2,16.1v111.2H250
	c0,0,0.9-180.4,0-199.1h66.2V379c8.8-13.6,24.5-32.9,59.6-32.9c43.5,0,76.2,28.5,76.2,89.6V549.9z"/>
</svg>
