<svg xmlns="http://www.w3.org/2000/svg" viewBox="0 0 50 50"><path fill-rule="evenodd" clip-rule="evenodd" fill="#f2efe9" d="M12.3 0h4.5c0 .1 0 .1.1.2 0 .1 0 0 .1.2-.6.4-1.3.7-1.9 1.2-2.7 1.8-4.5 4.4-5.4 8-.3 1.2-.3 2.7-.3 4.2v11.9c0 .8-.1 1.8.1 2.4.3 1 1 1.8 1.9 2.2.9.4 3 .2 4.2.2h7.2c1.1 0 2.6.2 3.5-.1 1-.3 1.8-.8 2.5-1.4.1-.1.5-.6.7-.4.1.1.1.4.1.6v8.7c-.1.1-.1.3-.2.5-.2.4-.7 1-1.1 1.2-.6.3-1.5.2-2.3.2H14.5c-1.5 0-3.1.1-4.4-.2-1.5-.4-2.8-.8-4-1.5-2.4-1.5-4.2-3.7-5.3-6.4-.9-2.2-.7-5.3-.7-8.4v-7.6c0-1.2-.1-2.9.1-4C.7 9.7 1.1 8 2 6.5 3.6 4 5.8 2.1 8.5.9c.8-.3 1.7-.5 2.6-.7.4-.1.9 0 1.2-.2z"/><path fill-rule="evenodd" clip-rule="evenodd" fill="#f2efe9" d="M21.6 0h13.8c1.2 0 2.5-.1 3.5.2 5.6 1.4 9.1 4.7 10.6 10.2.5 1.8.3 4.2.3 6.3-.1.1-.1.1-.4.2-.4-.7-.8-1.4-1.3-2.1-1.8-2.6-4.5-4.3-8-5.2-1.1-.4-2.6-.3-4.1-.3H24.4c-.8 0-1.8-.1-2.4.1-.7.2-1.4.6-1.8 1.2-.7 1-.6 2.4-.6 4.1v7.8c0 1.3-.2 2.9.2 4 .2.7.6 1.4 1 2 .3.3.8.5.8 1.1-.5.3-2.1.1-2.8.1h-6.6c-.2-.1-.4-.1-.6-.2-.5-.2-.9-.7-1.1-1.2-.2-.6-.1-1.7-.1-2.5v-5.6-6.3c0-1.4-.1-2.7.2-3.9 1-3.7 2.9-6.4 5.7-8.1 1-.6 2.2-1 3.5-1.4.5-.3 1.2-.4 1.8-.5z"/><path fill-rule="evenodd" clip-rule="evenodd" fill="#f2efe9" d="M22.3 10.2h11.5c2 0 4.4-.2 6.1.2 4.3 1.1 7.3 3.5 8.9 7.3 1.2 2.8 1 6.9 1 10.9V35c0 1.5.1 3-.3 4.3-1.5 5.6-4.9 9-10.5 10.4-1.7.4-3.9.2-5.9.2 0-.1-.1-.2-.2-.2 0-.1 0-.1.1-.1.1-.3.4-.3.7-.4.5-.3 1-.6 1.5-1 1.4-1 2.6-2.4 3.5-3.8 1-1.5 1.4-3.3 1.8-5.3.2-1 .1-2.4.1-3.5v-7.2-6.3c-.3-1.2-1-2.1-2.1-2.5-.8-.3-2.2-.2-3.3-.2h-6.6c-1.9 0-4.2-.2-5.6.4-.9.4-1.7 1-2.3 1.7l-.1-.1c-.4-.1-.2-1.7-.2-2.3V12c.1-.1 0-.3.1-.4.2-.4.5-.8.8-1.1.3-.1.7-.1 1-.3z"/><path fill-rule="evenodd" clip-rule="evenodd" fill="#f2efe9" d="M28.6 20.3h7c1.6 0 2.9 0 3.6.9.5.6.4 1.6.4 2.7v12c0 1.5.1 3.1-.3 4.3-.9 3.3-2.6 5.7-5 7.5-1.4 1-3 1.6-4.9 2.1-1 .3-2.3.2-3.5.2H14.5c-1.3 0-2.6.1-3.6-.2-5.6-1.4-8.7-4.6-10.4-10-.4-1.3-.4-3-.4-4.7 0-.6 0-1.4.1-1.9h.1c.1 0 .1 0 .3-.1 1.8 3.9 5 6.3 9.6 7.4 1.1.3 2.5.2 3.9.2h11.4c.8 0 1.8.1 2.6-.1.5-.1 1-.4 1.4-.7 1.1-.8 1.1-2.4 1.1-4.4v-8.1c0-1.4.1-3-.2-4-.2-.8-.7-1.4-1.1-2-.2-.3-.6-.4-.7-.8 0-.1 0 0 .1-.1-.1-.2-.1-.1-.1-.2z"/></svg>