<?xml version="1.0" encoding="utf-8"?>
<!-- Generator: Adobe Illustrator 18.1.0, SVG Export Plug-In . SVG Version: 6.00 Build 0)  -->
<svg version="1.1" id="Слой_1" xmlns="http://www.w3.org/2000/svg" xmlns:xlink="http://www.w3.org/1999/xlink" x="0px" y="0px"
	 viewBox="0 0 22 23" enable-background="new 0 0 22 23" xml:space="preserve">
<path display="none" fill-rule="evenodd" clip-rule="evenodd" d="M9,7.6L9.6,7l3.7,4.1l-0.6,0.6L9,7.6"/>
<path display="none" fill-rule="evenodd" clip-rule="evenodd" d="M12.8,10.5l0.6,0.6l-3.7,4.1L9,14.6L12.8,10.5"/>
<path fill-rule="evenodd" clip-rule="evenodd" fill="none" stroke="#000000" stroke-width="2" stroke-miterlimit="10" d="M11,1
	c5.5,0,10,4.7,10,10.5C21,17.3,16.6,22,11,22S1,17.3,1,11.5C1,5.7,5.5,1,11,1z"/>
<rect x="8.6" y="9.2" transform="matrix(0.6942 0.7198 -0.7198 0.6942 10.9168 -5.3723)" fill-rule="evenodd" clip-rule="evenodd" width="6.4" height="2"/>
<rect x="8.6" y="12.3" transform="matrix(-0.7194 0.6946 -0.6946 -0.7194 29.528 14.7693)" fill-rule="evenodd" clip-rule="evenodd" width="6.4" height="2"/>
</svg>
